<?xml version="1.0" encoding="utf-8"?>
<!-- Designed by Vexels.com - 2020 All Rights Reserved - https://vexels.com/terms-and-conditions/  -->
<svg version="1.1" id="Capa_1" xmlns="http://www.w3.org/2000/svg" xmlns:xlink="http://www.w3.org/1999/xlink" x="0px" y="0px"
	 viewBox="0 0 1200 1200" enable-background="new 0 0 1200 1200" xml:space="preserve">
<g>
	<path d="M1149.939,791.79c0.273,24.163-0.318,48.417-2.793,72.489c-1.93,18.781-3.429,40.31-10.605,58.364
		c12.331,7.948,17.191,21.733,9.016,36.472c-9.697,17.464-28.864,29.886-45.26,40.31c-98.083,62.406-223.485,80.664-337.147,62.542
		c-47.259-7.54-94.722-22.641-136.53-46.123c-38.084-21.37-76.577-53.367-80.119-99.536c-15.988-13.217-26.661-31.68-34.019-51.846
		c-5.2-14.33-8.698-29.159-12.263-43.943c-3.475-14.511-7.54-28.773-9.47-43.625c-4.02-31.18-3.27-63.065-25.049-88.113
		c-0.068-0.045-0.091-0.114-0.159-0.182c-4.474-1.135-8.97-2.226-13.376-3.475c-15.193-4.292-36.926-13.467-39.923-30.544
		c-0.659-0.5-2.521-16.169,4.406-16.941c13.853-1.567,15.715-15.352,18.962-26.457c3.157-10.764,23.186-38.129,28.251-37.289
		c25.503,4.247,51.437,12.717,72.852,27.615c5.723,3.997,11.014,8.493,15.942,13.399c6.586-19.19,14.511-38.697,25.503-55.366
		c12.854-19.462,28.728-37.176,45.964-52.913c-8.039-11.128-11.241-26.161-8.993-39.424c2.43-14.352,17.373-31.475,33.065-31.566
		c-1.703-7.653-3.225-15.329-4.474-23.073c-6.949-42.717-3.861-85.093,1.908-127.764c2.975-22.074,6.404-62.633,29.454-75.419
		c-5.7-6.063-9.788-13.898-11.559-21.892c-4.61-20.893,1.976-45.101,22.346-54.639c0.84-0.386,1.658-0.568,2.407-0.568
		c5.064-2.475,9.788-3.157,14.125-2.43c31.498-3.815,63.019,5.882,94.018,10.174c33.883,4.655,68.492,4.02,102.534,7.562
		c17.078,1.771,34.155,4.179,50.869,8.107c10.764,2.521,22.505,4.905,30.158,13.558c10.81,12.263,13.376,31.748,4.724,44.329
		c1.022,3.747-0.091,8.13-3.384,10.469c16.533,35.018,12.082,76.917,1.317,112.662c-5.155,17.191-9.447,34.973-10.56,52.936
		c-1.067,17.373,1.885,30.953,8.789,46.487c11.65,0.068,22.664,0.704,33.701,6.268c12.331,6.2,23.005,17.35,26.003,31.112
		c3.429,15.67-1.976,27.751-11.559,37.017c3.043,2.362,5.814,5.064,8.221,7.403c12.468,12.24,23.641,25.844,34.632,39.401
		c20.053,24.799,39.242,50.347,57.955,76.191c3.02,4.156,7.153,8.448,8.63,13.444c2.294,7.744,2.316,16.805,3.293,24.799
		C1146.533,711.58,1149.508,751.685,1149.939,791.79z M1128.161,855.172c1.862-25.662,2.157-51.392,1.408-77.076
		c-0.976-33.565-3.474-67.107-7.313-100.467c-9.765,13.944-24.799,23.981-40.9,31.089c-30.113,13.262-63.042,20.87-95.335,26.593
		c-69.287,12.24-142.843,15.919-212.971,9.879c-7.312-0.636-7.29-10.696,0-11.355c65.358-5.927,130.898-4.497,195.984-14.466
		c31.566-4.837,62.996-11.786,93.2-22.255c24.231-8.403,45.26-21.143,56.342-44.738c-0.341-0.613-0.749-1.317-1.226-1.953
		c-2.225-2.907-4.269-5.95-6.427-8.902c-10.469-14.489-21.097-28.864-31.93-43.057c-1.749,1.34-3.634,2.498-5.496,3.724
		c-6.427,4.224-12.899,8.38-19.621,12.195c-56.161,31.907-121.723,43.08-185.378,47.44c-58.5,4.02-117,1.476-174.909-7.494
		c-24.799-3.838-49.802-7.994-73.92-15.079c-17.736-5.201-37.834-11.945-50.756-25.889c-2.044,4.156-4.201,8.221-6.609,12.172
		c9.765,11.9,17.872,25.276,24.844,38.833c4.542,8.879,8.857,17.941,12.99,27.093c35.291,15.76,75.169,17.191,109.755,34.405
		c4.86,2.43,1.135,8.879-3.429,8.107c-32.815-5.518-67.834-12.513-99.082-25.934c4.338,10.128,8.493,20.348,12.558,30.499
		c6.563,16.351,10.901,37.902,31.362,40.9c9.129,1.317,8.97,16.782,0,18.258c-23.187,3.861-36.608-12.286-44.92-32.202
		c-9.129-21.824-17.486-44.011-26.434-65.926c-11.037-26.956-23.913-55.048-45.419-75.373
		c-17.032-16.101-38.879-25.321-60.408-34.11c13.126,26.502-7.767,65.336-34.405,71.24c0.954,0.477,1.953,0.931,3.043,1.385
		c10.197,4.179,21.392,5.859,32.066,8.38c14.988,3.543,52.618,15.034,45.555,37.743c-1.453,4.746-6.745,6.949-11.15,4.542
		c-4.565-2.521-6.836-7.54-10.719-10.969c-0.931-0.84-1.93-1.612-2.952-2.339c8.153,15.352,11.082,34.587,13.331,50.62
		c3.997,28.432,10.287,55.729,17.85,83.435c6.972,25.594,15.851,53.617,38.947,69.264c14.103,9.538,32.202,13.58,49.007,14.398
		c18.735,0.931,34.859-5.087,52.595-10.038c0.659-0.182,1.294-0.295,1.93-0.341c4.655-14.693,11.514-28.569,14.443-43.943
		c2.657-13.989,3.089-28.887,0.727-42.967c-1.908-11.536-5.677-22.573-10.401-33.247c-3.179-7.154-9.084-12.74-12.013-19.803
		c-2.157-5.178,3.838-8.993,8.198-8.198c9.061,1.635,16.805,13.49,21.506,20.529c7.381,11.06,11.014,25.185,12.99,38.152
		c4.837,32.089-0.931,75.237-24.277,99.968c0.25,3.452-1.204,6.904-5.132,8.789c-33.474,16.078-73.852,16.76-108.03,2.271
		c-1.249-0.545-2.453-1.135-3.679-1.703c16.578,38.152,55.321,63.564,92.178,80.528c96.743,44.533,210.609,50.029,313.142,24.322
		c39.674-9.947,77.372-24.685,112.458-45.692c14.125-8.448,28.432-17.6,39.923-29.522c3.134-3.247,8.312-9.197,8.357-12.831
		c0.023-2.18-1.885-4.247-4.383-6.132c-11.605,14.421-31.521,25.435-45.215,32.452c-13.058,6.677-26.752,12.331-40.537,17.327
		c-11.105,3.997-24.072,9.311-35.881,10.31c-7.381,0.636-8.085-8.97-3.384-12.49c8.743-6.54,21.506-10.219,31.657-14.262
		c11.673-4.655,23.323-9.288,34.7-14.648c11.4-5.405,22.528-11.536,32.634-19.121c7.858-5.905,13.262-13.785,19.894-20.529
		C1121.597,896.345,1126.639,876.02,1128.161,855.172z M1067.276,585.587c0.432-0.25,0.84-0.5,1.249-0.727
		c-3.361-4.292-6.767-8.562-10.197-12.831c-4.383,2.702-8.902,5.178-13.194,7.971c-6.79,4.406-13.467,8.562-20.938,11.718
		c-18.304,7.721-36.79,15.329-56.115,19.984c-67.879,16.374-141.413,17.168-210.677,11.196c-33.928-2.93-68.083-7.903-101.171-16.01
		c-22.869-5.609-53.095-13.535-67.243-34.201c-5.859,9.266-10.287,19.303-14.784,29.295
		c47.054,28.228,104.214,35.291,157.922,41.309c87.273,9.765,181.927,6.677,265.634-22.392
		c19.439-6.767,38.175-15.374,55.661-26.252C1058.124,591.741,1062.575,588.448,1067.276,585.587z M1039.57,563.082
		c2.543-1.658,5.042-3.316,7.608-4.746c-6.745-8.085-13.626-16.033-20.961-23.55c-3.838-3.929-7.835-7.789-11.991-11.4
		c-0.227-0.204-0.908-0.681-1.68-1.226c-12.695,6.745-27.365,10.991-39.219,13.512c-41.036,8.743-83.526,8.175-125.266,9.788
		c-34.995,1.34-73.011,1.771-107.78-6.268c0.091,0.931,0.023,1.953-0.295,2.998c-2.157,6.972-8.107,12.967-12.536,18.713
		c-4.655,6.063-9.493,12.036-15.306,17.055c-11.082,9.493-24.799,13.512-38.425,6.813c-3.043-1.522-5.905-3.429-8.334-5.632
		c-7.994-5.723-12.422-15.193-9.629-25.821c1.681-6.359,5.496-11.945,9.652-16.941c1.59-1.93,3.316-4.02,5.246-5.768
		c-7.199,0.477-14.943-1.272-20.961-3.293c-4.565-1.544-10.265-3.929-14.67-7.335c-14.103,13.671-27.865,27.638-39.583,43.421
		c14.216,9.515,28.387,17.441,44.829,22.641c17.327,5.473,35.291,8.789,53.14,12.013c43.602,7.858,87.591,11.332,131.875,11.446
		c42.535,0.114,85.138-2.748,126.788-11.65c20.916-4.474,40.469-11.491,60.18-19.666
		C1022.152,574.096,1030.623,568.873,1039.57,563.082z M1008.095,505.218c12.922-8.63,20.666-24.367,9.629-37.63
		c-1.226-1.476-2.566-2.793-3.951-3.974c-20.189,12.354-40.65,21.438-64.314,24.799c-26.752,3.815-53.663,6.608-80.687,7.903
		c-25.934,1.226-52.119,1.022-78.098,0.341c-21.438-0.568-43.421-1.794-63.769-8.948c2.998,11.468,8.403,23.005,9.765,34.632
		c37.88,5.269,74.987,7.835,113.389,6.154c36.063-1.567,72.693-1.181,108.347-7.494
		C974.939,518.071,993.901,514.71,1008.095,505.218z M989.836,454.848c-2.952-0.227-5.95-0.273-8.925-0.182
		c-12.218,0.386-24.458,0.023-36.676-0.363c-25.571-0.84-51.21-1.726-76.758-3.089c0.159,2.907,0.25,5.814,0.182,8.698
		c-0.136,5.269-4.315,9.47-9.583,9.583c-22.891,0.477-45.783,0.863-68.674,1.249c-4.883,0.091-9.311-4.292-9.197-9.197
		c0.114-4.474,0.023-8.993-0.114-13.535c-10.265,2.157-21.074,2.68-31.453,3.929c-8.97,1.045-17.85,1.839-26.797,1.453
		c0.636,6.813,1.34,13.626,2.362,20.37c46.032,9.629,95.721,5.905,142.389,3.702c27.479-1.294,54.912-4.02,82.095-8.153
		C963.789,466.998,976.619,460.775,989.836,454.848z M973.009,289.772c1.476-21.574-2.566-41.876-5.2-63.019
		c-6.336,0.204-12.808-0.409-19.031-0.681c-0.681-0.023-1.385-0.091-2.067-0.114c4.973,8.743,6.904,20.212,8.016,28.887
		c2.316,18.236,2.067,37.198,0.045,55.457c-2.271,20.734-9.833,40.559-15.215,60.589c-3.066,11.378-6.018,22.982-6.972,34.746
		c-0.409,5.337-0.545,10.764,0.273,16.078c0.636,4.224,0.273,8.948,0.908,12.99c7.676,0.454,15.374,0.863,23.05,1.135
		c-4.633-10.946-5.814-24.095-5.768-34.995c0.091-18.054,3.452-36.245,8.016-53.663
		C964.107,327.947,971.623,309.847,973.009,289.772z M967.218,205.565c7.971-3.475,3.043-18.872-1.681-23.436
		c-6.291-6.109-20.825-7.244-28.887-8.948c-7.721-1.612-15.511-2.884-23.323-3.997c2.498,7.449,4.11,16.056-1.453,20.779
		c-2.68,2.248-6.881,2.816-9.493,0c-3.634-3.951-3.134-8.153-3.247-13.172c-0.068-3.247-0.363-6.336-0.886-9.47
		c-9.992-1.067-20.03-1.885-30.067-2.589c0.954,2.521,1.703,5.132,2.271,7.767c1.022,4.678,2.839,10.537-0.341,14.693
		c-2.339,3.066-5.768,4.315-9.356,2.453c-4.928-2.566-5.496-7.721-5.7-12.74c-0.159-4.542-0.159-8.493-1.817-12.785
		c-0.045-0.136-0.068-0.273-0.091-0.409c-10.537-0.681-21.052-1.34-31.544-2.248c3.679,9.538,7.176,22.71-2.044,26.071
		c-7.381,2.68-10.401-5.314-11.014-11.037c-0.613-5.677-1.453-11.15-2.975-16.669c-8.198-0.954-16.374-2.157-24.526-3.747
		c3.906,10.083,7.244,23.323-1.499,30.726c-3.611,3.089-10.401,2.453-11.491-3.02c-0.999-4.951-0.023-9.833-0.386-14.829
		c-0.386-4.973-1.317-9.788-1.317-14.807c0-0.363,0.023-0.727,0.091-1.067c-15.193-3.247-30.226-6.677-45.578-8.811
		c9.266,15.034,12.422,38.538,6.381,55.548c40.786-1.681,81.959-2.771,122.609-0.931c22.21,1.022,44.352,2.816,66.516,4.338
		c10.787,0.749,21.597,1.431,32.407,1.93C954.796,205.429,961.063,205.201,967.218,205.565z M933.04,320.93
		c4.088-15.942,4.633-32.952,4.338-49.348c-0.227-13.853,0.25-36.176-10.696-46.804c-3.429-0.227-6.881-0.454-10.31-0.704
		c-22.187-1.612-44.329-3.588-66.516-4.973c-34.746-2.203-69.787-2.044-104.6-3.906c0.023,0.363,0.068,0.704,0.068,1.09
		c-0.545,13.785-10.583,24.186-15.488,36.54c-5.564,13.944-8.562,28.319-10.537,43.148c-4.133,30.862-5.405,62.202-3.793,93.291
		c0.772,15.17,2.839,30.136,4.497,45.215c9.107,0.295,18.19,0.886,27.32,0.25c10.742-0.749,21.688-2.861,32.452-1.862
		c-0.023-5.723,0.182-11.423,0.863-17.055c-3.316-1.249-6.472-3.043-9.356-5.655c-7.994-7.222-12.082-21.165-1.158-27.615
		c12.627-7.449,32.566-8.584,46.918-9.402c15.511-0.886,32.543-0.318,47.577,4.11c13.966,4.11,33.179,21.801,19.19,36.517
		c-4.565,4.792-11.173,7.176-18.213,8.357c0.886,3.157,1.045,6.949,1.045,10.56c15.874-0.659,31.793-0.023,47.713,0.863
		c-2.453-4.474-3.406-9.424-3.679-16.147c-0.454-11.014,1.499-22.255,3.883-32.952C919.369,362.874,927.567,342.299,933.04,320.93z
		 M871.542,402.661c6.427-11.945-44.851-13.762-50.279-13.603c-8.448,0.273-44.125-3.134-40.696,7.88
		c3.429,11.014,45.964,9.561,55.184,9.833c7.108,0.227,14.284,0.272,21.347-0.477C859.915,406,869.953,405.614,871.542,402.661z
		 M797.486,452.1c16.941-0.522,33.86-1.022,50.801-1.499c-0.182-3.565-0.431-7.131-0.59-10.696
		c-0.204-4.678-1.476-11.355-0.568-16.737c-1.794-0.023-3.543-0.068-5.201-0.114c-12.172-0.227-43.852-4.61-47.236-4.746
		C794.648,429.391,796.124,440.927,797.486,452.1z M729.108,214.149c-3.406-0.25-6.836-0.522-10.242-0.84
		c-3.179,3.043-7.085,5.314-11.741,6.518c-7.085,1.839-13.807,0.999-19.78-1.612c-7.608,10.31-12.695,20.166-15.806,32.974
		c-3.883,15.851-5.405,32.407-6.949,48.621c-3.588,37.062-5.723,74.215,0.681,111.073c3.202,18.372,7.767,36.472,12.876,54.389
		c4.746,16.623,11.378,32.929,15.829,49.552c1.226,4.542,3.724,16.669,3.565,18.667c-0.704,8.675-6.995,15.034-12.786,21.029
		c-1.771,1.839-4.133,9.402-1.59,11.355c1.226,0.931,2.135,2.021,2.839,3.202c16.124,3.02,25.957-21.12,37.017-32.111
		c0-0.182-5.814-27.229-7.767-32.702c-4.02-11.173-6.427-21.915-8.153-33.701c-4.315-29.5-8.834-59.499-10.219-89.294
		c-1.385-29.704,0.182-59.59,4.315-89.022c2.044-14.625,4.883-28.682,10.197-42.512
		C716.186,237.245,724.384,226.571,729.108,214.149z M696.86,202.931c24.367,4.428,20.938-63.178-5.359-61.27
		c-0.114,0.068-0.204,0.182-0.341,0.25C673.06,153.901,671.085,198.252,696.86,202.931z M671.516,514.075
		c-1.567-3.997-3.452-7.88-4.519-11.173c-3.179-9.924-6.154-19.916-9.061-29.909c-0.818-2.793-1.612-5.587-2.385-8.38
		c-1.113-0.295-2.203-0.659-3.27-1.067c-2.816-0.522-12.036-3.202-12.922-5.042c-0.341,0.25-0.659,0.5-0.977,0.795
		c-4.02,3.634-5.609,8.993-5.995,14.216c-0.704,9.038,3.52,20.529,6.018,26.252c2.475,5.723,14.67,9.311,18.417,10.832
		C661.501,512.508,666.565,513.166,671.516,514.075z"/>
	<path fill="#DFE8E5" d="M1129.568,778.096c0.749,25.685,0.454,51.415-1.408,77.076c-1.522,20.847-6.563,41.172-9.061,61.793
		c-6.631,6.745-12.036,14.625-19.894,20.529c-10.106,7.585-21.234,13.717-32.634,19.121c-11.378,5.359-23.028,9.992-34.7,14.648
		c-10.151,4.042-22.914,7.721-31.657,14.262c-4.701,3.52-3.997,13.126,3.384,12.49c11.809-0.999,24.776-6.313,35.881-10.31
		c13.785-4.996,27.479-10.651,40.537-17.327c13.694-7.017,33.61-18.031,45.215-32.452c2.498,1.885,4.406,3.951,4.383,6.132
		c-0.045,3.634-5.223,9.583-8.357,12.831c-11.491,11.922-25.798,21.074-39.923,29.522c-35.086,21.006-72.784,35.745-112.458,45.692
		c-102.534,25.707-216.4,20.211-313.142-24.322c-36.858-16.964-75.6-42.376-92.178-80.528c1.226,0.568,2.43,1.158,3.679,1.703
		c34.178,14.489,74.556,13.807,108.03-2.271c3.929-1.885,5.382-5.337,5.132-8.789c23.345-24.731,29.114-67.879,24.277-99.968
		c-1.976-12.967-5.609-27.093-12.99-38.152c-4.701-7.04-12.445-18.894-21.506-20.529c-4.36-0.795-10.356,3.02-8.198,8.198
		c2.93,7.063,8.834,12.649,12.013,19.803c4.724,10.674,8.493,21.71,10.401,33.247c2.362,14.08,1.93,28.977-0.727,42.967
		c-2.93,15.374-9.788,29.25-14.443,43.943c-0.636,0.045-1.272,0.159-1.93,0.341c-17.736,4.951-33.86,10.969-52.595,10.038
		c-16.805-0.818-34.905-4.86-49.007-14.398c-23.096-15.647-31.975-43.671-38.947-69.264c-7.562-27.706-13.853-55.003-17.85-83.435
		c-2.248-16.033-5.178-35.268-13.331-50.62c1.022,0.727,2.021,1.499,2.952,2.339c3.883,3.429,6.154,8.448,10.719,10.969
		c4.406,2.407,9.697,0.204,11.15-4.542c7.063-22.71-30.567-34.201-45.555-37.743c-10.673-2.521-21.869-4.201-32.066-8.38
		c-1.09-0.454-2.089-0.908-3.043-1.385c26.638-5.904,47.531-44.738,34.405-71.24c21.529,8.789,43.375,18.009,60.408,34.11
		c21.506,20.325,34.382,48.417,45.419,75.373c8.948,21.915,17.305,44.102,26.434,65.926c8.312,19.916,21.733,36.063,44.92,32.202
		c8.97-1.476,9.129-16.941,0-18.258c-20.461-2.998-24.799-24.549-31.362-40.9c-4.065-10.151-8.221-20.37-12.558-30.499
		c31.248,13.421,66.267,20.416,99.082,25.934c4.565,0.772,8.289-5.677,3.429-8.107c-34.587-17.214-74.465-18.645-109.755-34.405
		c-4.133-9.152-8.448-18.213-12.99-27.093c-6.972-13.558-15.079-26.934-24.844-38.833c2.407-3.951,4.565-8.016,6.609-12.172
		c12.922,13.944,33.02,20.688,50.756,25.889c24.118,7.085,49.121,11.241,73.92,15.079c57.909,8.97,116.409,11.514,174.909,7.494
		c63.655-4.36,129.218-15.533,185.378-47.44c6.722-3.815,13.194-7.971,19.621-12.195c1.862-1.226,3.747-2.385,5.496-3.724
		c10.833,14.194,21.461,28.569,31.93,43.057c2.157,2.952,4.201,5.995,6.427,8.902c0.477,0.636,0.886,1.34,1.226,1.953
		c-11.082,23.595-32.111,36.335-56.342,44.738c-30.204,10.469-61.634,17.418-93.2,22.255
		c-65.086,9.969-130.626,8.539-195.984,14.466c-7.29,0.659-7.312,10.719,0,11.355c70.127,6.041,143.684,2.362,212.971-9.879
		c32.293-5.723,65.222-13.331,95.335-26.593c16.101-7.108,31.135-17.146,40.9-31.089
		C1126.094,710.989,1128.592,744.531,1129.568,778.096z M1119.031,721.504c1.908-6.586-7.767-10.787-11.15-4.701
		c-6.063,10.901-18.917,16.851-29.886,21.733c-13.535,6.018-27.297,11.605-41.286,16.464c-15.034,5.246-30.249,9.742-45.714,13.558
		c-15.284,3.793-30.93,5.7-46.191,9.447c-6.926,1.726-4.519,10.719,1.567,11.514c16.601,2.135,34.882-1.363,51.097-4.928
		c18.667-4.088,36.971-10.015,54.776-16.896C1075.406,758.748,1111.287,748.278,1119.031,721.504z M959.655,1008.712
		c6.836-3.951,2.226-14.443-5.314-12.581c-27.797,6.836-55.252,14.489-83.98,16.51c-28.818,2.021-58.046,0.5-86.569-4.02
		c-57.864-9.152-110.096-31.271-163.123-55.048c-7.154-3.202-12.672,5.973-6.154,10.537c48.826,34.314,111.436,53.754,169.89,62.974
		c29.613,4.656,59.613,6.609,89.544,4.156C903.54,1028.833,933.721,1023.678,959.655,1008.712z M627.937,895.732
		c5.359-2.203,8.562-10.991,1.839-14.08c-12.649-5.814-26.116-5.564-38.039-14.035c-10.242-7.267-17.645-17.759-23.663-28.614
		c-13.103-23.527-20.053-50.96-27.592-76.668c-2.362-8.062-13.58-4.565-12.309,3.406c4.905,30.59,10.515,61.475,26.366,88.681
		c7.29,12.513,16.941,23.845,29.091,31.884C595.053,893.892,614.447,901.273,627.937,895.732z"/>
	<path d="M1107.881,716.803c3.384-6.086,13.058-1.885,11.15,4.701c-7.744,26.775-43.625,37.244-66.789,46.191
		c-17.804,6.881-36.108,12.808-54.776,16.896c-16.215,3.565-34.496,7.063-51.097,4.928c-6.086-0.795-8.493-9.788-1.567-11.514
		c15.261-3.747,30.908-5.655,46.191-9.447c15.465-3.815,30.681-8.312,45.714-13.558c13.989-4.86,27.751-10.446,41.286-16.464
		C1088.964,733.654,1101.817,727.704,1107.881,716.803z"/>
	<path fill="#2E4761" d="M1068.525,584.86c-0.409,0.227-0.818,0.477-1.249,0.727c-4.701,2.861-9.152,6.154-13.853,9.061
		c-17.486,10.878-36.222,19.485-55.661,26.252c-83.708,29.068-178.361,32.157-265.634,22.392
		c-53.708-6.018-110.868-13.081-157.922-41.309c4.497-9.992,8.925-20.03,14.784-29.295c14.148,20.666,44.375,28.591,67.243,34.201
		c33.088,8.107,67.243,13.081,101.171,16.01c69.264,5.973,142.798,5.178,210.677-11.196c19.326-4.656,37.811-12.263,56.115-19.984
		c7.471-3.157,14.148-7.313,20.938-11.718c4.292-2.793,8.811-5.269,13.194-7.971C1061.758,576.299,1065.164,580.568,1068.525,584.86
		z"/>
	<path fill="#DFE8E5" d="M1047.178,558.336c-2.566,1.431-5.064,3.089-7.608,4.746c-8.948,5.791-17.418,11.014-27.32,15.102
		c-19.712,8.175-39.265,15.193-60.18,19.666c-41.649,8.902-84.253,11.764-126.788,11.65c-44.284-0.114-88.272-3.588-131.875-11.446
		c-17.85-3.225-35.813-6.54-53.14-12.013c-16.442-5.201-30.613-13.126-44.829-22.641c11.718-15.783,25.48-29.75,39.583-43.421
		c4.406,3.406,10.106,5.791,14.67,7.335c6.018,2.021,13.762,3.77,20.961,3.293c-1.93,1.749-3.656,3.838-5.246,5.768
		c-4.156,4.996-7.971,10.583-9.652,16.941c-2.793,10.628,1.635,20.098,9.629,25.821c2.43,2.203,5.291,4.11,8.334,5.632
		c13.626,6.699,27.342,2.68,38.425-6.813c5.814-5.019,10.651-10.991,15.306-17.055c4.428-5.745,10.378-11.741,12.536-18.713
		c0.318-1.045,0.386-2.067,0.295-2.998c34.768,8.039,72.784,7.608,107.78,6.268c41.74-1.612,84.23-1.045,125.266-9.788
		c11.854-2.521,26.525-6.767,39.219-13.512c0.772,0.545,1.453,1.022,1.68,1.226c4.156,3.611,8.153,7.471,11.991,11.4
		C1033.552,542.303,1040.433,550.251,1047.178,558.336z"/>
	<path fill="#2E4761" d="M1017.724,467.588c11.037,13.262,3.293,29-9.629,37.63c-14.194,9.493-33.156,12.854-49.689,15.783
		c-35.654,6.313-72.285,5.927-108.347,7.494c-38.402,1.68-75.509-0.886-113.389-6.154c-1.363-11.627-6.767-23.164-9.765-34.632
		c20.348,7.154,42.331,8.38,63.769,8.948c25.98,0.681,52.164,0.886,78.098-0.341c27.024-1.294,53.935-4.088,80.687-7.903
		c23.663-3.361,44.125-12.445,64.314-24.799C1015.158,464.795,1016.497,466.112,1017.724,467.588z"/>
	<path fill="#2E4761" d="M980.912,454.666c2.975-0.091,5.973-0.045,8.925,0.182c-13.217,5.927-26.048,12.15-41.15,14.466
		c-27.183,4.133-54.617,6.858-82.095,8.153c-46.668,2.203-96.357,5.927-142.389-3.702c-1.022-6.745-1.726-13.558-2.362-20.37
		c8.948,0.386,17.827-0.409,26.797-1.453c10.378-1.249,21.188-1.771,31.453-3.929c0.136,4.542,0.227,9.061,0.114,13.535
		c-0.114,4.905,4.315,9.288,9.197,9.197c22.891-0.386,45.782-0.772,68.674-1.249c5.269-0.114,9.447-4.315,9.583-9.583
		c0.068-2.884-0.023-5.791-0.182-8.698c25.548,1.363,51.187,2.248,76.758,3.089C956.453,454.689,968.694,455.052,980.912,454.666z"
		/>
	<path fill="#DFE8E5" d="M967.808,226.753c2.634,21.143,6.677,41.445,5.2,63.019c-1.385,20.075-8.902,38.175-13.944,57.41
		c-4.565,17.418-7.926,35.609-8.016,53.663c-0.045,10.901,1.135,24.049,5.768,34.995c-7.676-0.273-15.374-0.681-23.05-1.135
		c-0.636-4.042-0.273-8.766-0.908-12.99c-0.818-5.314-0.681-10.742-0.273-16.078c0.954-11.764,3.906-23.368,6.972-34.746
		c5.382-20.03,12.944-39.855,15.215-60.589c2.021-18.258,2.271-37.221-0.045-55.457c-1.113-8.675-3.043-20.143-8.016-28.887
		c0.681,0.023,1.385,0.091,2.067,0.114C955,226.344,961.472,226.957,967.808,226.753z"/>
	<path fill="#2E4761" d="M965.537,182.129c4.724,4.565,9.652,19.962,1.681,23.436c-6.154-0.363-12.422-0.136-18.44-0.409
		c-10.81-0.5-21.62-1.181-32.407-1.93c-22.165-1.522-44.306-3.316-66.516-4.338c-40.65-1.839-81.823-0.749-122.609,0.931
		c6.041-17.009,2.884-40.514-6.381-55.548c15.352,2.135,30.385,5.564,45.578,8.811c-0.068,0.341-0.091,0.704-0.091,1.067
		c0,5.019,0.931,9.833,1.317,14.807c0.363,4.996-0.613,9.879,0.386,14.829c1.09,5.473,7.88,6.109,11.491,3.02
		c8.743-7.403,5.405-20.643,1.499-30.726c8.153,1.59,16.328,2.793,24.526,3.747c1.522,5.518,2.362,10.991,2.975,16.669
		c0.613,5.723,3.634,13.717,11.014,11.037c9.22-3.361,5.723-16.533,2.044-26.071c10.492,0.908,21.006,1.567,31.544,2.248
		c0.023,0.136,0.045,0.273,0.091,0.409c1.658,4.292,1.658,8.244,1.817,12.785c0.204,5.019,0.772,10.174,5.7,12.74
		c3.588,1.862,7.017,0.613,9.356-2.453c3.179-4.156,1.363-10.015,0.341-14.693c-0.568-2.634-1.317-5.246-2.271-7.767
		c10.038,0.704,20.075,1.522,30.067,2.589c0.522,3.134,0.818,6.222,0.886,9.47c0.114,5.019-0.386,9.22,3.247,13.172
		c2.612,2.816,6.813,2.248,9.493,0c5.564-4.724,3.951-13.331,1.453-20.779c7.812,1.113,15.602,2.385,23.323,3.997
		C944.712,174.884,959.247,176.02,965.537,182.129z"/>
	<path d="M954.341,996.131c7.54-1.862,12.15,8.63,5.314,12.581c-25.934,14.966-56.115,20.121-85.706,22.528
		c-29.931,2.453-59.931,0.5-89.544-4.156c-58.454-9.22-121.065-28.659-169.89-62.974c-6.518-4.565-0.999-13.739,6.154-10.537
		c53.027,23.777,105.259,45.896,163.123,55.048c28.523,4.519,57.75,6.041,86.569,4.02
		C899.089,1010.62,926.545,1002.966,954.341,996.131z"/>
	<path fill="#2E4761" d="M821.263,389.058c5.428-0.159,56.706,1.658,50.279,13.603c-1.59,2.952-11.627,3.338-14.443,3.634
		c-7.063,0.749-14.239,0.704-21.347,0.477c-9.22-0.273-51.755,1.181-55.184-9.833C777.138,385.924,812.815,389.331,821.263,389.058z
		"/>
	<path fill="#DFE8E5" d="M848.288,450.601c-16.941,0.477-33.86,0.977-50.801,1.499c-1.363-11.173-2.839-22.71-2.793-33.792
		c3.384,0.136,35.064,4.519,47.236,4.746c1.658,0.045,3.406,0.091,5.201,0.114c-0.908,5.382,0.363,12.059,0.568,16.737
		C847.856,443.47,848.106,447.036,848.288,450.601z"/>
	<path fill="#DFE8E5" d="M718.866,213.309c3.406,0.318,6.836,0.59,10.242,0.84c-4.724,12.422-12.922,23.096-17.714,35.586
		c-5.314,13.83-8.153,27.887-10.197,42.512c-4.133,29.432-5.7,59.317-4.315,89.022c1.385,29.795,5.904,59.794,10.219,89.294
		c1.726,11.786,4.133,22.528,8.153,33.701c1.953,5.473,7.767,32.52,7.767,32.702c-11.06,10.991-20.893,35.132-37.017,32.111
		c-0.704-1.181-1.612-2.271-2.839-3.202c-2.543-1.953-0.182-9.515,1.59-11.355c5.791-5.995,12.082-12.354,12.786-21.029
		c0.159-1.998-2.339-14.125-3.565-18.667c-4.451-16.623-11.082-32.929-15.829-49.552c-5.11-17.918-9.674-36.017-12.876-54.389
		c-6.404-36.858-4.269-74.011-0.681-111.073c1.544-16.215,3.066-32.77,6.949-48.621c3.111-12.808,8.198-22.664,15.806-32.974
		c5.973,2.612,12.695,3.452,19.78,1.612C711.78,218.623,715.686,216.352,718.866,213.309z"/>
	<path fill="#2E4761" d="M691.501,141.66c26.298-1.908,29.727,65.699,5.359,61.27c-25.775-4.678-23.8-49.03-5.7-61.021
		C691.296,141.842,691.387,141.728,691.501,141.66z"/>
	<path fill="#2E4761" d="M666.997,502.901c1.067,3.293,2.952,7.176,4.519,11.173c-4.951-0.908-10.015-1.567-14.693-3.475
		c-3.747-1.522-15.942-5.11-18.417-10.832c-2.498-5.723-6.722-17.214-6.018-26.252c0.386-5.223,1.976-10.583,5.995-14.216
		c0.318-0.295,0.636-0.545,0.977-0.795c0.886,1.839,10.106,4.519,12.922,5.042c1.067,0.409,2.157,0.772,3.27,1.067
		c0.772,2.793,1.567,5.587,2.385,8.38C660.843,482.985,663.818,492.977,666.997,502.901z"/>
	<path d="M629.776,881.652c6.722,3.089,3.52,11.877-1.839,14.08c-13.49,5.541-32.883-1.839-44.306-9.424
		c-12.15-8.039-21.801-19.371-29.091-31.884c-15.851-27.206-21.461-58.091-26.366-88.681c-1.272-7.971,9.947-11.468,12.309-3.406
		c7.54,25.707,14.489,53.14,27.592,76.668c6.018,10.855,13.421,21.347,23.663,28.614
		C603.66,876.088,617.127,875.838,629.776,881.652z"/>
	<path d="M366.89,612.021c-0.386-0.795-0.727-1.59-1.158-2.316c-0.681-1.135-1.385-2.226-2.089-3.338
		c-4.883,1.045-10.015,1.476-14.761,2.089c-59.567,7.653-120.86,6.268-180.723,4.224c-26.252-0.908-52.527-2.294-78.689-4.837
		c-7.199-0.704-13.626-1.158-20.007-4.088c-1.408,8.857-2.634,18.554,0.886,25.48c4.36,8.493,15.874,12.081,25.526,14.352
		c17.327,4.065,35.427,4.86,53.163,5.677c27.955,1.249,56.002,1.726,83.98,1.726c25.276,0.023,50.824-0.681,75.873-4.201
		c14.58-2.044,30.068-4.792,43.466-11.173c7.335-3.497,12.74-7.108,15.125-12.445c0.182-0.432,0.818-2.998,0.886-4.088
		c0.045-0.681,0.023-1.317,0-1.749c-0.204-0.999-0.431-1.998-0.681-2.998c-0.341-1.249-0.636-1.998-0.772-2.294L366.89,612.021z
		 M511.028,407.589c0.273,3.565-2.68,6.359-5.7,7.471c-11.809,4.406-23.096,10.333-34.337,15.942
		c-8.698,4.338-17.305,9.038-25.639,14.057c-3.406,2.044-6.518,4.61-9.901,6.291c0.545,3.066-0.727,6.586-2.702,8.675
		c-10.787,11.468-21.529,22.959-32.384,34.36c-1.522,1.59-3.316,2.385-5.155,2.589c-2.861,5.632-6.2,11.06-8.948,16.646
		c-4.565,9.243-8.652,18.804-12.536,28.342c-3.656,8.97-5.201,18.554-5.428,28.228c-0.091,4.201,0.999,9.583,0.386,14.193
		c2.248,0.363,4.451,1.567,5.95,2.998c7.721,7.358,13.603,18.1,14.33,28.796c1.135,16.555-9.879,27.933-23.141,35.404
		c0.886,2.316,0.704,5.087-1.204,7.88c-19.848,29.341,6.041,61.884,10.969,92.087c4.769,29.364,3.384,60.544-2.157,89.68
		c-4.201,22.119-11.718,43.239-22.165,62.701c4.814,7.994,5.882,18.145,0.182,26.071c-1.499,2.089-3.27,3.883-5.223,5.428
		c6.654,8.879,10.537,20.779,10.81,31.362c0.386,15.147-6.177,30.794-2.907,45.873c2.884,13.285,12.445,20.779,21.96,29.091
		c6.518,5.7,9.061,14.693,0.477,20.212c-9.765,6.291-26.547,5.655-37.312,3.089c-13.035-3.089-23.868-11.468-31.18-22.551
		c-7.585-11.423-9.97-23.504-9.947-36.926c0.023-7.449,0.5-14.852,0.636-22.278c0.091-4.247,0.659-10.287-0.749-14.966
		c-1.59,1.294-3.157,2.589-4.792,3.838c-22.006,16.76-48.894,27.615-76.94,25.208c-22.8-1.93-42.24-12.104-58.795-26.661
		c-6.722,13.353-2.407,32.066-1.635,46.055c0.749,13.217,2.634,30.749-7.471,41.173c-16.851,17.373-59.363,19.258-70.604-5.541
		c-1.635-3.611-1.181-8.403,2.725-10.446c15.919-8.312,26.252-17.486,25.026-36.426c-0.636-10.174-2.884-20.189-3.497-30.385
		c-0.977-15.692,1.681-35.223,14.262-42.24c-8.425-5.859-12.036-13.512-8.516-23.459c0.386-1.067,1.022-1.953,1.839-2.68
		c-14.534-28.432-23.913-59.703-27.569-90.793c-3.089-26.207,0.023-52.527,1.567-78.734c1.522-25.571,3.588-54.208-5.178-78.916
		c-2.021-0.818-3.997-1.68-5.927-2.657c-24.504-12.263-26.479-39.628-17.85-63.042c2.362-6.404,95.766-14.307,115.365-12.649
		c48.122,4.02,97.106-1.749,145.023,4.36c-1.045-6.699-0.5-14.08,0.023-20.348c1.34-15.897,4.837-31.952,11.741-46.396
		c6.404-13.376,13.853-26.525,21.165-39.424c1.499-2.68,3.338-6.608,5.518-10.378c-2.975-3.588-4.269-7.653-1.045-11.945
		c1.181-1.567,2.521-2.543,3.929-3.02c1.067-0.795,2.112-1.544,2.93-2.316c3.929-3.747,6.495-9.22,10.128-13.512
		c7.426-8.743,15.874-16.782,24.39-24.458c4.701-4.247,10.469-3.247,14.33,1.067c9.811-11.65,22.596-21.233,34.882-29.909
		c13.739-9.697,28.364-18.622,44.329-24.118c3.974-1.363,8.312,0.999,10.469,4.269C506.281,376.659,509.824,392.419,511.028,407.589
		z M494.54,402.934c-1.703-7.948-4.428-15.738-8.38-22.846c-25.23,11.536-45.828,30.522-68.787,45.714
		c2.407,3.225,4.837,6.427,7.222,9.674c9.084-9.447,29.205-15.42,37.766-19.19C473.012,411.586,483.867,407.498,494.54,402.934z
		 M413.603,452.577c-4.814-6.359-9.606-12.74-14.375-19.144c-5.178,4.769-10.219,9.697-14.943,14.852
		c-3.293,3.588-6.177,8.448-9.765,11.877c0.341,0.454,0.636,0.977,0.863,1.522c1.294,1.113,2.475,2.135,3.452,2.884
		c4.565,3.543,9.175,7.04,13.762,10.537C399.569,467.588,406.586,460.071,413.603,452.577z M379.426,488.413
		c-3.565-2.793-7.131-5.587-10.719-8.357c-1.317,1.612-2.634,3.157-3.747,4.678c-8.403,11.219-16.555,22.914-21.006,36.313
		c-4.883,14.761-8.38,30.022-10.424,45.442c-1.022,7.767-0.863,16.601-3.361,24.095c6.767-0.636,13.512-1.476,20.212-2.612
		c-0.568-1.317-0.908-2.748-0.931-4.065c-0.477-17.827,5.564-36.585,9.97-53.685C362.848,516.936,369.297,499.858,379.426,488.413z
		 M357.829,798.739c0.431-13.58,0.204-27.615-1.658-41.104c-1.794-12.876-6.631-25.026-10.923-37.198
		c-0.318-0.886-0.613-1.771-0.908-2.634c-6.904,2.271-15.579,2.589-20.847,3.475c-6.767,1.158-12.15-8.471-5.019-11.923
		c4.814-2.339,9.856-3.406,14.988-4.814c1.998-0.568,4.133-1.612,6.291-2.589c-0.636-2.793-1.158-5.564-1.544-8.334
		c-9.129,2.68-18.236,5.564-27.887,4.86c-6.722-0.477-9.22-11.355-1.703-12.536c10.174-1.612,19.326-6.063,29.068-8.879
		c0.477-5.337,1.658-10.628,3.702-15.851c-14.035,3.906-28.682,5.836-43.057,7.313c-31.93,3.316-64.086,2.907-96.13,2.362
		c-27.093-0.477-54.321-0.908-81.278-3.838c-9.016-0.977-18.259-2.112-27.274-4.133c1.794,5.269,3.179,10.628,4.247,16.056
		c1.272-0.931,2.884-1.317,4.701-0.704c21.256,7.403,45.419,9.175,67.743,9.811c25.049,0.727,51.596-4.451,76.304-0.613
		c6.904,1.09,5.405,10.628,0,12.536c-13.194,4.633-28.523,4.746-42.376,5.269c-13.217,0.522-26.502,0.59-39.719-0.182
		c-22.959-1.34-44.375-4.996-64.927-15.352c0.818,6.858,1.249,13.785,1.385,20.757c0.023,0,0.045,0,0.068,0
		c5.269,1.022,10.537,1.998,15.829,2.884c4.837,0.795,10.56,0.59,14.648,3.497c2.725,1.93,3.815,5.905,1.09,8.471
		c-8.13,7.676-21.937,2.657-31.703-1.294c-0.704,28.773-4.565,58.091-1.885,85.661c3.793,38.992,18.349,79.484,41.309,112.549
		c2.407,0.613,4.724,1.113,6.79,1.567c5.019,1.113,10.083,2.021,15.215,2.771c-21.892-25.707-33.86-63.678-41.899-95.585
		c-7.017-27.933-12.218-65.812,11.446-87.545c19.508-17.872,52.209-9.697,54.685,18.713c1.045,11.991-3.792,24.39-11.741,33.292
		c-7.04,7.857-19.962,16.146-30.363,9.652c-5.178-3.247-4.86-10.174,0-13.49c6.631-4.496,13.331-4.587,18.44-11.695
		c4.224-5.904,7.426-15.238,3.588-22.096c-5.859-10.492-17.327-6.381-23.868,0.59c-7.494,8.017-9.107,18.19-9.243,28.773
		c-0.295,24.072,6.836,47.781,14.284,70.445c7.653,23.164,18.486,44.261,27.797,66.675c0.59,1.431,0.477,2.748-0.045,3.906
		c0,0,18.372,9.947,56.797,9.129s47.213-10.083,47.213-10.083c4.224-9.629,10.06-18.463,13.762-28.387
		c4.224-11.355,6.972-23.209,9.334-35.086c4.951-24.981,9.197-51.755,5.155-77.167c-1.363-8.448-4.36-16.805-8.834-24.095
		c-2.543-4.156-10.628-15.374-16.896-10.901c-3.815,2.725-2.021,11.128-0.659,14.648c2.612,6.699,6.881,7.744,13.081,9.856
		c6.677,2.248,7.358,10.287,1.885,14.262c-22.324,16.147-39.288-22.165-35.359-39.333c2.475-10.833,10.583-19.122,21.96-19.984
		c13.353-1.022,24.095,7.494,31.407,17.872c19.371,27.479,16.601,64.177,11.718,95.675c-2.771,17.872-6.041,35.745-12.081,52.868
		c-3.27,9.22-7.176,19.598-13.172,28.046c2.589-0.273,5.178-0.5,7.767-0.795c2.021-0.227,3.747-0.409,5.496-0.659
		c4.042-5.064,7.812-10.31,11.309-15.715c0.931-1.476,10.537-18.69,11.105-19.894C349.903,860.759,356.875,829.965,357.829,798.739z
		 M337.027,1043.594c5.473,2.793,11.468,3.77,17.532,3.588c-1.998-2.203-3.929-4.451-5.746-6.79
		c-7.608-9.833-12.695-21.302-13.035-33.815c-0.363-13.308,3.906-26.547,3.043-39.787c-0.568-8.857-6.063-15.897-9.22-23.686
		c-2.226,0.568-4.451,1.045-6.654,1.431c-4.633,5.246-9.538,10.265-14.716,15.056c11.491,14.852,6.699,38.561,9.402,55.752
		C319.427,1026.653,326.694,1038.303,337.027,1043.594z M233.403,977.464c22.233-2.816,41.559-14.807,58.068-29.568
		c-16.305,3.77-44.261,12.581-71.899,12.354c-24.322-0.204-42.512-7.358-59.522-13.762c1.113,1.158,2.18,2.339,3.316,3.475
		C182.42,968.97,205.902,980.938,233.403,977.464z M143.496,957.093c0.068-0.068,0.114-0.136,0.182-0.204
		c-4.587-5.132-8.925-10.492-13.035-16.056c-23.436,1.09-14.784,38.652-12.627,54.072c1.522,10.719,2.748,21.915-1.317,32.27
		c-4.156,10.537-13.126,15.988-21.551,22.392c6.722,4.973,17.577,4.474,25.321,2.907c11.173-2.271,17.191-6.132,17.782-17.85
		C139.453,1010.143,127.054,978.735,143.496,957.093z"/>
	<path fill="#DFE8E5" d="M486.161,380.088c3.951,7.108,6.677,14.897,8.38,22.846c-10.673,4.565-21.529,8.652-32.179,13.353
		c-8.562,3.77-28.682,9.742-37.766,19.19c-2.384-3.247-4.814-6.45-7.222-9.674C440.333,410.61,460.93,391.624,486.161,380.088z"/>
	<path fill="#2E4761" d="M399.228,433.433c4.769,6.404,9.561,12.785,14.375,19.144c-7.017,7.494-14.035,15.011-21.006,22.528
		c-4.587-3.497-9.197-6.995-13.762-10.537c-0.977-0.749-2.157-1.771-3.452-2.884c-0.227-0.545-0.522-1.067-0.863-1.522
		c3.588-3.429,6.472-8.289,9.765-11.877C389.009,443.13,394.051,438.202,399.228,433.433z"/>
	<path fill="#DFE8E5" d="M368.707,480.056c3.588,2.771,7.154,5.564,10.719,8.357c-10.128,11.446-16.578,28.523-20.007,41.808
		c-4.406,17.1-10.446,35.858-9.97,53.685c0.023,1.317,0.363,2.748,0.931,4.065c-6.699,1.135-13.444,1.976-20.212,2.612
		c2.498-7.494,2.339-16.328,3.361-24.095c2.044-15.42,5.541-30.681,10.424-45.442c4.451-13.399,12.604-25.094,21.006-36.313
		C366.072,483.212,367.389,481.668,368.707,480.056z"/>
	<path fill="#DFE8E5" d="M366.935,612.135c-0.023-0.045-0.045-0.068-0.023-0.091c0.136,0.295,0.431,1.045,0.772,2.294
		c0.25,0.999,0.477,1.998,0.681,2.998c0.023,0.431,0.045,1.067,0,1.749c-0.068,1.09-0.704,3.656-0.886,4.088
		c-2.384,5.337-7.789,8.948-15.125,12.445c-13.399,6.381-28.887,9.129-43.466,11.173c-25.049,3.52-50.597,4.224-75.873,4.201
		c-27.978,0-56.025-0.477-83.98-1.726c-17.736-0.818-35.836-1.612-53.163-5.677c-9.652-2.271-21.165-5.859-25.526-14.352
		c-3.52-6.926-2.294-16.623-0.886-25.48c6.381,2.93,12.808,3.384,20.007,4.088c26.161,2.543,52.436,3.929,78.689,4.837
		c59.862,2.044,121.156,3.429,180.723-4.224c4.746-0.613,9.879-1.045,14.761-2.089c0.704,1.113,1.408,2.203,2.089,3.338
		c0.431,0.727,0.772,1.522,1.158,2.316C366.89,612.066,366.913,612.089,366.935,612.135z M306.596,634.276
		c4.269-1.135,4.247-7.471,0-8.63c-17.009-4.587-36.29-2.975-53.799-3.111c-18.985-0.159-37.948-0.114-56.933,0.477
		c-6.858,0.204-6.858,10.401,0,10.628c18.985,0.659,37.948,1.499,56.933,2.203C270.215,636.479,289.586,638.796,306.596,634.276z"/>
	<path d="M366.913,612.044c-0.023,0.023,0,0.045,0.023,0.091c-0.023-0.045-0.045-0.068-0.045-0.114L366.913,612.044z"/>
	<path fill="#A36839" d="M356.171,757.635c1.862,13.49,2.089,27.524,1.658,41.104c-0.954,31.226-7.926,62.02-21.392,89.748
		c-0.568,1.204-10.174,18.417-11.105,19.894c-3.497,5.405-7.267,10.651-11.309,15.715c-1.749,0.25-3.475,0.431-5.496,0.659
		c-2.589,0.295-5.178,0.522-7.767,0.795c5.995-8.448,9.901-18.826,13.172-28.046c6.041-17.123,9.311-34.995,12.081-52.868
		c4.883-31.498,7.653-68.197-11.718-95.675c-7.312-10.378-18.054-18.894-31.407-17.872c-11.378,0.863-19.485,9.152-21.96,19.984
		c-3.929,17.168,13.035,55.479,35.359,39.333c5.473-3.974,4.792-12.013-1.885-14.262c-6.2-2.112-10.469-3.157-13.081-9.856
		c-1.363-3.52-3.157-11.923,0.659-14.648c6.268-4.474,14.352,6.745,16.896,10.901c4.474,7.29,7.471,15.647,8.834,24.095
		c4.042,25.412-0.204,52.187-5.155,77.167c-2.362,11.877-5.11,23.732-9.334,35.086c-3.702,9.924-9.538,18.758-13.762,28.387
		c0,0-8.789,9.266-47.213,10.083s-56.797-9.129-56.797-9.129c0.522-1.158,0.636-2.475,0.045-3.906
		c-9.311-22.414-20.143-43.512-27.797-66.675c-7.449-22.664-14.58-46.373-14.284-70.445c0.136-10.583,1.749-20.757,9.243-28.773
		c6.54-6.972,18.009-11.082,23.868-0.59c3.838,6.858,0.636,16.192-3.588,22.096c-5.11,7.108-11.809,7.199-18.44,11.695
		c-4.86,3.316-5.178,10.242,0,13.49c10.401,6.495,23.323-1.794,30.363-9.652c7.948-8.902,12.786-21.302,11.741-33.292
		c-2.475-28.41-35.177-36.585-54.685-18.713c-23.663,21.733-18.463,59.613-11.446,87.545c8.039,31.907,20.007,69.877,41.899,95.585
		c-5.132-0.749-10.197-1.658-15.215-2.771c-2.067-0.454-4.383-0.954-6.79-1.567c-22.959-33.065-37.516-73.556-41.309-112.549
		c-2.68-27.569,1.181-56.888,1.885-85.661c9.765,3.951,23.573,8.97,31.703,1.294c2.725-2.566,1.635-6.54-1.09-8.471
		c-4.088-2.907-9.811-2.702-14.648-3.497c-5.291-0.886-10.56-1.862-15.829-2.884c-0.023,0-0.045,0-0.068,0
		c-0.136-6.972-0.568-13.898-1.385-20.757c20.552,10.356,41.967,14.012,64.927,15.352c13.217,0.772,26.502,0.704,39.719,0.182
		c13.853-0.522,29.182-0.636,42.376-5.269c5.405-1.908,6.904-11.446,0-12.536c-24.708-3.838-51.256,1.34-76.304,0.613
		c-22.324-0.636-46.487-2.407-67.743-9.811c-1.817-0.613-3.429-0.227-4.701,0.704c-1.067-5.428-2.453-10.787-4.247-16.056
		c9.016,2.021,18.259,3.157,27.274,4.133c26.956,2.93,54.185,3.361,81.278,3.838c32.043,0.545,64.2,0.954,96.13-2.362
		c14.375-1.476,29.023-3.406,43.057-7.313c-2.044,5.223-3.225,10.515-3.702,15.851c-9.742,2.816-18.894,7.267-29.068,8.879
		c-7.517,1.181-5.019,12.059,1.703,12.536c9.652,0.704,18.758-2.18,27.887-4.86c0.386,2.771,0.908,5.541,1.544,8.334
		c-2.157,0.977-4.292,2.021-6.291,2.589c-5.132,1.408-10.174,2.475-14.988,4.814c-7.131,3.452-1.749,13.081,5.019,11.923
		c5.269-0.886,13.944-1.204,20.847-3.475c0.295,0.863,0.59,1.749,0.908,2.634C349.54,732.609,354.377,744.758,356.171,757.635z"/>
	<path fill="#DFE8E5" d="M354.559,1047.182c-6.063,0.182-12.059-0.795-17.532-3.588c-10.333-5.291-17.6-16.941-19.394-28.251
		c-2.702-17.191,2.089-40.9-9.402-55.752c5.178-4.792,10.083-9.81,14.716-15.056c2.203-0.386,4.428-0.863,6.654-1.431
		c3.157,7.789,8.652,14.829,9.22,23.686c0.863,13.24-3.406,26.479-3.043,39.787c0.341,12.513,5.428,23.981,13.035,33.815
		C350.63,1042.731,352.56,1044.979,354.559,1047.182z"/>
	<path d="M306.596,625.647c4.247,1.158,4.269,7.494,0,8.63c-17.009,4.519-36.381,2.203-53.799,1.567
		c-18.985-0.704-37.948-1.544-56.933-2.203c-6.858-0.227-6.858-10.424,0-10.628c18.985-0.59,37.948-0.636,56.933-0.477
		C270.306,622.672,289.586,621.059,306.596,625.647z"/>
	<path fill="#DFE8E5" d="M291.471,947.896c-16.51,14.761-35.836,26.752-58.068,29.568c-27.501,3.475-50.983-8.493-70.036-27.501
		c-1.135-1.135-2.203-2.316-3.316-3.475c17.009,6.404,35.2,13.558,59.522,13.762C247.21,960.477,275.166,951.666,291.471,947.896z"
		/>
	<path fill="#DFE8E5" d="M143.496,957.093c0.068-0.068,0.114-0.136,0.182-0.204c-4.587-5.132-8.925-10.492-13.035-16.056
		c-23.436,1.09-14.784,38.652-12.627,54.072c1.522,10.719,2.748,21.915-1.317,32.27c-4.156,10.537-13.126,15.988-21.551,22.392
		c6.722,4.973,17.577,4.474,25.321,2.907c11.173-2.271,17.191-6.132,17.782-17.85C139.453,1010.143,127.054,978.735,143.496,957.093
		z"/>
</g>
</svg>
